<svg xmlns="http://www.w3.org/2000/svg" version="1.1" xmlns:xlink="http://www.w3.org/1999/xlink" xmlns:svgjs="http://svgjs.dev/svgjs" viewBox="0 0 9.136486032897222 9.136486032897222"><g transform="matrix(0.8571428571428572,0,0,0.8571428571428572,2.9457022129179045,3.528870826488526)"><rect width="10.65923370504676" height="10.65923370504676" x="-3.4366525817375555" y="-4.1170159642366135" fill="#262626"></rect><g><path d=" M 1.4388825553608315 -1.3431485997402661 Q 1.4196827475844138 -1.3395657087412107 1.3967807512569819 -1.3385205667184765 Q 1.37387875492955 -1.3374754246957423 1.3496779606149603 -1.3433902129919597 Q 1.3254771663003706 -1.3493050012881769 1.3016288379513359 -1.3639779945864825 Q 1.2777805096023014 -1.378650987884788 1.2565376124604497 -1.4059795861959132 Q 1.2352947153185978 -1.4333081845070383 1.2176493735922784 -1.4759610806279646 Q 1.200004031865959 -1.5186139767488909 1.1885387806689816 -1.5800533616334274 L 1.1343475543082675 -1.8704504542517442 Q 1.1227927308363135 -1.932369834330691 1.124196771564183 -1.978080840118774 Q 1.1256008122920522 -2.023791845906857 1.1358423865215728 -2.0567474306317304 Q 1.146083960751093 -2.089703015356604 1.1634095799366158 -2.111314445373775 Q 1.1807351991221382 -2.1329258753909457 1.2010683187029791 -2.146406106330863 Q 1.2214014382838199 -2.1598863372707804 1.2427037859796366 -2.1668418469486688 Q 1.2640061336754533 -2.173797356626557 1.2827259462574605 -2.177290675350636 Q 1.3316854560873255 -2.1864270473982277 1.3671179367412676 -2.1788828851934126 Q 1.40255041739521 -2.1713387229885974 1.4269040455745743 -2.1512962102768007 Q 1.4512576737539389 -2.131253697565004 1.465569359804563 -2.101141529546002 Q 1.4798810458551874 -2.0710293615269992 1.48650939420344 -2.0355097171406267 Q 1.4914358693271412 -2.009109981448052 1.4929610065442858 -1.9862975573955968 Q 1.4944861437614305 -1.9634851333431411 1.4942222440215933 -1.9356201074314163 L 1.3934232531954005 -1.916809929686375 L 1.385630465272455 -1.9585695116000834 Q 1.3730007745007844 -2.0262488340119553 1.3518508642257137 -2.057071757096418 Q 1.330700953950643 -2.0878946801808813 1.3019012422860163 -2.082520343682298 Q 1.2846214152872406 -2.079295741783148 1.272915556887828 -2.0701573576370396 Q 1.2612096984884156 -2.0610189734909308 1.2555704562007366 -2.043326833528606 Q 1.2499312139130576 -2.0256346935662815 1.2502977346898598 -1.9983840212614314 Q 1.2506642554666618 -1.9711333489565814 1.2580091820147254 -1.9317737430149253 L 1.3278755564963074 -1.5573774913747813 Q 1.3350413384944184 -1.518977875821946 1.3433886330262452 -1.4942099225805157 Q 1.351735927558072 -1.4694419693390852 1.362762158662294 -1.4556048517925495 Q 1.3737883897665157 -1.441767734246014 1.3881974833249842 -1.4377510366833237 Q 1.4026065768834526 -1.4337343391206334 1.4213263894654597 -1.4372276578447125 Q 1.4333262693257207 -1.4394669647191223 1.4433360776349324 -1.4470470717792991 Q 1.453345885944144 -1.4546271788394762 1.4595512811094054 -1.4679545759146189 Q 1.4657566762746665 -1.4812819729897613 1.4674376655043617 -1.500222301667405 Q 1.4691186547340567 -1.5191626303450485 1.464550468710261 -1.543642385259981 L 1.4495918987892045 -1.6238015827265246 L 1.563350759864479 -1.6450302118959284 L 1.5775031793107481 -1.5691909711790788 Q 1.5959550679558838 -1.470311961130528 1.5596136026289882 -1.4148526382305242 Q 1.5232721373020928 -1.3593933153305207 1.4388825553608315 -1.3431485997402661 M 1.819966223910824 -2.2243851037776627 L 1.965474036410824 -2.2243851037776627 L 2.119770911410824 -1.3904007287776627 L 1.991841223910824 -1.3904007287776627 L 1.968892005160824 -1.5398147912776627 L 1.816548255160824 -1.5398147912776627 L 1.794575598910824 -1.3904007287776627 L 1.666157630160824 -1.3904007287776627 L 1.819966223910824 -2.2243851037776627 M 1.954243567660824 -1.6350296350276627 L 1.895649817660824 -2.0505569787776627 L 1.890278723910824 -2.0505569787776627 L 1.831196692660824 -1.6350296350276627 L 1.954243567660824 -1.6350296350276627 M 2.391205544096577 -1.3349079504424386 Q 2.372005736320159 -1.3384908414414942 2.3502681795674203 -1.345775920991564 Q 2.3285306228146814 -1.353061000541634 2.3080918640491 -1.3673060104106551 Q 2.2876531052835185 -1.3815510202796764 2.2707018421076657 -1.4038376569509747 Q 2.253750578931813 -1.426124293622273 2.243793788436986 -1.4592750898068636 Q 2.2338369979421593 -1.4924258859914539 2.2327625270864715 -1.5385721008364592 Q 2.2316880562307837 -1.5847183156814646 2.243153307427761 -1.646157700566001 L 2.297344533788475 -1.936554793184318 Q 2.308899357260429 -1.9984741732632647 2.3266951243089773 -2.0406022880522925 Q 2.3444908913575255 -2.08273040284132 2.3659289999590944 -2.1097742174177516 Q 2.387367108560663 -2.136818031994183 2.4113210760944384 -2.1507262463633854 Q 2.435275043628214 -2.1646344607325867 2.4591014819331334 -2.1698740423746767 Q 2.4829279202380534 -2.1751136240167663 2.505305135233587 -2.1739180566718037 Q 2.52768235022912 -2.1727224893268406 2.5464021628111273 -2.1692291706027613 Q 2.5953616726409923 -2.16009279855517 2.6256885336212803 -2.1402772346785897 Q 2.6560153946015683 -2.1204616708020096 2.6715013675582706 -2.092984659267173 Q 2.686987340514973 -2.065507647732336 2.689475486268714 -2.03226045008916 Q 2.691963632022455 -1.9990132524459843 2.6853352836742026 -1.9634936080596117 Q 2.680408808550501 -1.9370938723670375 2.673603724194842 -1.915266743339322 Q 2.6667986398391825 -1.8934396143116066 2.6565026453019898 -1.8675451784493622 L 2.5557036544757974 -1.8863553561944035 L 2.563496442398743 -1.928114938108112 Q 2.5761261331704137 -1.9957942605199839 2.5675163413920368 -2.032170664652983 Q 2.5589065496136603 -2.068547068785982 2.5301068379490337 -2.073921405284565 Q 2.512827010950258 -2.077146007183715 2.4986131288515065 -2.0728445258863313 Q 2.4843992467527554 -2.0685430445889477 2.4727586620416586 -2.0540755065257725 Q 2.4611180773305614 -2.039607968462598 2.451631647859961 -2.0140591693822993 Q 2.442145218389361 -1.9885103703020008 2.434800291841297 -1.9491507643603445 L 2.364933917359715 -1.5747545127202005 Q 2.3577681353616042 -1.5363548971673653 2.356620768745934 -1.510243359801289 Q 2.3554734021302637 -1.4841318224352127 2.360767007635997 -1.46724924753948 Q 2.36606061314173 -1.4503666726437474 2.3780512552758357 -1.4414234999573559 Q 2.3900418974099416 -1.432480327270964 2.408761709991949 -1.428987008546885 Q 2.42076158985221 -1.4267477016724754 2.4328315604858783 -1.4302074840837387 Q 2.4449015311195472 -1.4336672664950016 2.4554959677586514 -1.4438596339459708 Q 2.4660904043977556 -1.4540520013969398 2.47448931425068 -1.4711113123000792 Q 2.4828882241036037 -1.4881706232032188 2.4874564101273995 -1.5126503781181513 L 2.502414980048456 -1.592809575584695 L 2.6161738411237305 -1.5715809464152912 L 2.6020214216774615 -1.4957417056984414 Q 2.5835695330323256 -1.3968626956498906 2.529671901810058 -1.3582429604454478 Q 2.4757742705877908 -1.319623225241005 2.391205544096577 -1.3349079504424386" fill="#ffffff" fill-rule="nonzero"></path></g><g><path d=" M -1.2571553279462484 0.9705323032226725 Q -1.242375449538563 0.972201154170816 -1.234924185602266 0.9805266613304361 Q -1.2274729216659688 0.9888521684900562 -1.2285602033443048 0.9984814832102148 Q -1.2296474850226407 1.0081107979303734 -1.237423974597292 1.014716882900997 Q -1.2452004641719432 1.0213229678716207 -1.2594313249946596 1.0188089379578036 Q -1.3493963834452956 1.0041147962728987 -1.399478468302237 0.9535548984249441 Q -1.4475234626062738 0.9050393571943064 -1.4402917751643183 0.8409932174276703 Q -1.4266375401340525 0.7200669395466092 -1.2417008703883499 0.705115587693363 Q -1.1734503427765497 0.6992144494825399 -1.0827556343657536 0.7094551257552393 Q -0.9920609259549578 0.7196958020279386 -0.9223370031090632 0.7389082212846929 Q -0.8526130802631685 0.7581206405414471 -0.80279082646487 0.7868791059876517 Q -0.6963343159020318 0.8483403024565483 -0.7064991353134519 0.9383631982124495 Q -0.7143882488864943 1.0082317143215072 -0.7732697296518293 1.0356020844413474 Q -0.8359364962066812 1.0643593850474178 -0.9689554018758485 1.0493397265141255 Q -0.9837352802835337 1.0476708755659818 -0.9903666508745839 1.0401183235429623 Q -0.996998021465634 1.0325657715199426 -0.9959360254077244 1.0231603943514156 Q -0.9936097483284939 1.0025581396013088 -0.9676329923392288 1.0054912715707733 Q -0.8019192041318488 1.0242026306863228 -0.7641526653795276 0.9749439266018178 Q -0.7508317956821288 0.9573974532860847 -0.7479998061943699 0.9323164475033461 Q -0.745167816706611 0.9072354417206075 -0.7570254622414504 0.8857120055385312 Q -0.7688831077762897 0.8641885693564549 -0.7919954681979737 0.8459301744265425 Q -0.8151078286196579 0.8276717794966301 -0.8476581178947078 0.8126567732306612 Q -0.8802084071697578 0.7976417669646922 -0.9183644013000098 0.7860760673582845 Q -0.9955721397670405 0.7628435256637633 -1.0723827199766776 0.7541705578575019 Q -1.1491933001863146 0.7454975900512405 -1.196104657023436 0.745190092758867 Q -1.2430160138605573 0.7448825954664935 -1.2769462587674583 0.7501231113290738 Q -1.3108765036743595 0.7553636271916542 -1.3330934050995509 0.765328629831735 Q -1.355310306524742 0.7752936324718158 -1.369071785260992 0.7887080873764745 Q -1.3929539046021207 0.8114122448391299 -1.3973536025563174 0.8503773788230273 Q -1.4022590129190424 0.8938212638395566 -1.3700122966941264 0.9255846482692485 Q -1.332947362879433 0.9628815137250695 -1.2571553279462484 0.9705323032226725 M -1.2029835317300357 1.2751119589820523 L -1.3628401533334265 1.2820830593846422 Q -1.384459193853945 1.2829038332952993 -1.3997726808893123 1.2834852148153482 Q -1.4065115315955024 1.2841921033399393 -1.4114658950481211 1.2843801973611315 Q -1.4071568320171712 1.3978801600938537 -1.4021344037099068 1.435126288675474 Q -1.3966102803557154 1.473706507833155 -1.3981724746751503 1.4800804591441943 Q -1.3997346689945853 1.4864544104552335 -1.4036172445274622 1.49111227233859 Q -1.411382395593216 1.5004279961053024 -1.4210659241596983 1.5007956344194509 Q -1.4307494527261806 1.5011632727335993 -1.4380554909005665 1.4928707774362104 Q -1.4453615290749524 1.4845782821388216 -1.4450421172399797 1.4692305961905103 Q -1.441991271293751 1.3951432481446024 -1.4480767713069 1.3358362320931887 Q -1.454162271320049 1.276529216041775 -1.4555618543173785 1.2693656178427821 Q -1.4569614373147077 1.2622020196437895 -1.456049188826831 1.2565293125337242 Q -1.4551369403389545 1.2508566054236592 -1.4517047614835883 1.2462158429967751 Q -1.4444413054647611 1.2355660286540022 -1.4295440161939605 1.235902539945447 Q -1.2991228845462583 1.2377167471876942 -1.141258849078722 1.23172338769425 Q -0.9833948136111859 1.2257300282008055 -0.9426253645682222 1.2244077257288428 Q -0.9018559155252587 1.22308542325688 -0.8680761647119485 1.2218029640214783 Q -0.7955964985456534 1.2181491581744608 -0.7657306167735451 1.2147600609315172 Q -0.7358647350014369 1.2113709636885737 -0.7298813322702562 1.2145266458357684 Q -0.7238979295390757 1.2176823279829632 -0.7210074554528186 1.2225340946967498 Q -0.7175981868631626 1.2291703486641077 -0.7190064860743494 1.2395978700727441 Q -0.7214410856450999 1.258634226723502 -0.7202612231485304 1.2897115974717475 Q -0.7179869954377511 1.349614355580684 -0.7146804900725485 1.3713645474293619 Q -0.7113739847073459 1.3931147392780396 -0.7131613773655362 1.399497240317315 Q -0.7149487700237265 1.4058797413565904 -0.7183980483355648 1.4100701071059638 Q -0.7252624060462971 1.4193516319597321 -0.7356215296290456 1.4197449194585887 Q -0.7459806532117941 1.4201382069574453 -0.7530443935909524 1.4122875586093313 Q -0.7601081339701109 1.404436910261217 -0.7599626221044774 1.3904489640736741 Q -0.759817110238844 1.3764610178861314 -0.7592895995215878 1.3606543855320732 Q -0.7587620888043316 1.344847753178015 -0.758545273708191 1.326797687164639 Q -0.7586304380193086 1.2889130678843155 -0.7619425877081281 1.2610739711610057 Q -0.8011270986515678 1.2625616238740718 -0.8398783123739689 1.263581780453155 Q -0.8858358729365428 1.2648755283357906 -0.9331446235316491 1.2662205745878423 Q -1.0602077849591114 1.2696914312804206 -1.120560939745559 1.271982758447672 Q -1.1184235076865559 1.328282343136522 -1.1147122596896417 1.3547531503708274 Q -1.1104651177328566 1.3834588415362146 -1.1160381335087086 1.3911126796492792 Q -1.1216111492845606 1.3987665177623436 -1.1315198761897982 1.399142705804728 Q -1.1562916934528924 1.4000831759106895 -1.1571521441144892 1.3536581192141328 Q -1.157060836022891 1.3441826895299338 -1.1573515267829153 1.3365259460122503 L -1.1582861860796385 1.3000267156774032 L -1.159295054011488 1.273453311704266 L -1.2029835317300357 1.2751119589820523 M -0.6570226253531525 1.9071026345900464 Q -0.8775148594708317 1.949202411195021 -0.9687203031764688 1.9677583078439387 Q -1.059925746882106 1.9863142044928566 -1.1025022474596824 1.9952064405629457 Q -1.1450787480372586 2.004098676633035 -1.1834144269996871 2.0123580880236474 Q -1.2645025134332921 2.0297755014416237 -1.29409078320815 2.036945170366883 Q -1.3236790529830083 2.0441148392921424 -1.329959954426431 2.0426329700146706 Q -1.3362408558698537 2.041151100737199 -1.341114502164478 2.0375431038015277 Q -1.361140619257525 2.022759302271643 -1.352023950660339 1.9997465792211502 Q -1.3483413395959947 1.9907181591413028 -1.3384600636844017 1.9850281588061012 Q -1.2324160657621275 1.9229773095009348 -1.109952552268232 1.841027509230733 Q -0.9874890387743367 1.7590777089605316 -0.9366830265350745 1.7262033563082753 Q -0.844420746053593 1.6664964651261636 -0.7668752754408239 1.620362693933827 L -1.3818407345833312 1.7514578348220284 Q -1.3955325929604485 1.754243465795958 -1.4035954307423724 1.7485245861370893 Q -1.411658268524296 1.7428057064782203 -1.4135003793296366 1.7337514130352878 Q -1.415342490134977 1.7246971195923553 -1.4096274217098586 1.7154851701514071 Q -1.4039123532847402 1.706273220710459 -1.3892472901421982 1.7037495444600539 Q -1.2668886655148888 1.6834550304581362 -1.1114198220069746 1.6518246400444845 L -0.8495078214382445 1.5985382152851224 Q -0.7810485295526575 1.5846100604154747 -0.7317608883820351 1.5736624995821087 Q -0.7154189928996691 1.5703377142261283 -0.7047845433749207 1.578523101629145 Q -0.694150093850172 1.5867084890321617 -0.6919036172582934 1.5977503103040305 Q -0.6868715096924852 1.6224839899530168 -0.7086627076426946 1.6351966316435451 Q -0.730453905592904 1.6479092733340737 -0.7670182766449148 1.6705268636118662 Q -0.8035826476969257 1.6931444538896587 -0.8482616032570304 1.7210926082479523 Q -0.8929405588171351 1.7490407626062459 -0.9428221070565608 1.7808071218975647 Q -0.9927036552959865 1.8125734811888838 -1.0421435306845375 1.8442499814165276 Q -1.0915834060730882 1.8759264816441716 -1.137980312271104 1.9056040203416276 Q -1.1843772184691197 1.9352815590390835 -1.2222178673081667 1.9595386745923633 Q -1.2600585161472138 1.9837957901456433 -1.2869624477130688 2.0007683096200717 Q -1.288197607202018 2.001479559661972 -1.2889910938400924 2.002100950640197 Q -1.2031420875780414 1.9809551913528702 -1.1015649543443486 1.9579893833895374 Q -0.977904178566918 1.9305306222424474 -0.9163844861673152 1.9164044983498654 Q -0.8548647937677124 1.902278374457283 -0.7917992463900481 1.887837743841838 Q -0.7287336990123835 1.8733971132263927 -0.6669071223574187 1.8585186209938234 Q -0.6527735911294266 1.8556431309562187 -0.6443551283265527 1.861979590359562 Q -0.6359366655236789 1.8683160497629054 -0.6340496251865009 1.8775911796312754 Q -0.6321625848493228 1.8868663094996452 -0.6375258394872416 1.8955467270260435 Q -0.6428890941251604 1.9042271445524417 -0.6570226253531525 1.9071026345900464 M -0.5603606080311145 2.117327523259612 Q -0.5558860519863996 2.129127845377497 -0.4994590811368129 2.2677675059053555 Q -0.4921080247776385 2.2871537493847374 -0.5041417326835604 2.29991142572649 Q -0.5077169111478457 2.3031952417593002 -0.5131956321311494 2.3052727142086322 Q -0.5186743531144531 2.3073501866579638 -0.526760877730959 2.3031859607592273 Q -0.5348474023474651 2.299021734860491 -0.5409779907658732 2.281582886186277 Q -0.5471085791842811 2.264144037512063 -0.5524182135944867 2.2475989834539205 Q -0.5577278480046922 2.2310539293957774 -0.5625799918388961 2.2169866013266737 Q -0.571165640496125 2.1918020257179367 -0.5782989146388361 2.174261348114135 Q -0.6765085766199512 2.2076451093048974 -0.7898759569667732 2.2506328084487657 Q -0.9112506987507312 2.296656813480119 -0.9560541640197446 2.3138868270451574 Q -1.0008576292887579 2.3311168406101963 -1.041417705479665 2.3474608613449504 Q -1.1454554275189968 2.3883569636821984 -1.1955488198765694 2.4087979526721788 Q -1.209717976875261 2.4146527822306854 -1.2193085300782216 2.4103358129375674 Q -1.2288990832811821 2.4060188436444494 -1.23201529195518 2.397800762169494 Q -1.2351315006291779 2.3895826806945384 -1.2315555825577498 2.379309052913326 Q -1.2279796644863215 2.3690354251321137 -1.2149150221415204 2.364081452368322 L -1.1598661778058705 2.3427254822263386 L -0.7557928498406156 2.1943255607433425 Q -0.6432683496450712 2.1516574727455255 -0.5950784998065171 2.130010140172067 Q -0.6031267551012314 2.107514010590188 -0.6168997623102891 2.0775479129336873 Q -0.6331716820443174 2.0422628998669086 -0.6403777967948971 2.026436970887381 Q -0.647583911545477 2.010611041907853 -0.6438191995793044 2.0014709171022504 Q -0.6400544876131318 1.9923307922966473 -0.6318364061381763 1.9892145836226496 Q -0.6236183246632208 1.9860983749486516 -0.6130540740576762 1.9898051102713863 Q -0.6024898234521315 1.9935118455941212 -0.5974488857231831 2.008712676638835 Q -0.5924079479942349 2.0239135076835484 -0.5886744431712099 2.035030755223181 Q -0.5849409383481847 2.046148002762814 -0.5822461697498256 2.054525889810795 Q -0.5795514011514664 2.0629037768587764 -0.5775757576317222 2.069385183566383 Q -0.575600114111978 2.0758665902739897 -0.5733338477679016 2.082478814232903 Q -0.5710675814238252 2.089091038191816 -0.5678714699633145 2.0975198397045913 L -0.5603606080311145 2.117327523259612 M -0.8840755466480419 2.66865444989512 Q -0.9715740277476224 2.721806222943779 -1.0361402162931763 2.760560888125539 Q -1.0492893856526349 2.7684439956580427 -1.0597427409217486 2.7650008447917758 Q -1.0701960961908623 2.7615576939255093 -1.0747120581427085 2.753496695871958 Q -1.0792280200945548 2.7454356978184067 -1.076547626944485 2.735926289033838 Q -1.0738672337944153 2.726416880249269 -1.0616774318597766 2.7195878646147698 L -0.7659764300904759 2.5539291627714342 Q -0.6126208573643758 2.468015740272896 -0.4949083637294558 2.3922544150002225 Q -0.47826758185137175 2.381381960364033 -0.4656349994313608 2.3882539405720573 Q -0.46045926441452334 2.3910373183733324 -0.4572259453656218 2.39542551513991 Q -0.4539926263167202 2.3998137119064884 -0.4402420694060708 2.413292218090559 Q -0.4061487511332341 2.447405384086279 -0.3837892322009222 2.4873171549367896 Q -0.3614297132686104 2.5272289257873 -0.35562781016651923 2.5583345606398713 Q -0.34982590706442807 2.589440195492443 -0.3575603313925545 2.618054886141313 Q -0.37406675159076985 2.6789653289040483 -0.44917166028483424 2.72104087684564 Q -0.5459036369274513 2.775232420267795 -0.678687303899229 2.7493944526865177 Q -0.7000654379718454 2.745355411347894 -0.7219315159348927 2.7395232015133657 Q -0.8183088400707216 2.8441459524793125 -0.9119149090982502 2.9647816535546694 Q -0.9278617777834925 2.986114624222227 -0.9482662229067806 2.9727473628673824 Q -0.953269029333291 2.9693504748219413 -0.9567936825640002 2.963058964145999 Q -0.964724152333096 2.948903065125128 -0.9519065186297833 2.933972849962739 Q -0.9223864192872855 2.9009027817073565 -0.89449372061262 2.8718442111573474 Q -0.8666010219379544 2.842785640607338 -0.8402575198139784 2.8151115981957124 Q -0.792540281280453 2.765647483106648 -0.76023680413668 2.727401679834428 Q -0.822611078570708 2.7055157541484975 -0.8840755466480419 2.66865444989512 M -0.8473805744903908 2.6465471630860447 Q -0.7763984374504671 2.688409074934399 -0.6838696354106669 2.7078674038611497 Q -0.5585736577226128 2.73325046826408 -0.47363826359738814 2.6856676496495053 Q -0.38555711413419225 2.6363225044195753 -0.3945835118395101 2.5602681521621324 Q -0.39937262393370165 2.5185208125098457 -0.4388950087623791 2.4719501915159756 Q -0.4574919638652537 2.4498208581524836 -0.47416798528695514 2.438497898001014 Q -0.5953908106280759 2.4996935844795285 -0.6756075717463436 2.544632913171071 Q -0.7609361852888147 2.592436022612566 -0.7673141602599208 2.5962674309653577 Q -0.7736921352310269 2.60009883931815 -0.7788904519503937 2.6032693751901843 Q -0.7840887686697606 2.606439911062218 -0.7895701593929143 2.610027347469795 Q -0.795051550116068 2.6136147838773716 -0.805338038141342 2.620152465330063 Q -0.8156245261666162 2.626690146782755 -0.8320923794543731 2.6369490911747784 Q -0.8389500381378892 2.641307545476573 -0.8473805744903908 2.6465471630860447 M -0.1489596704620455 2.842905452261076 Q -0.14220084630062868 2.851351305780118 -0.14360670409864917 2.8640218705138327 Q -0.14501256189666978 2.8766924352475485 -0.1641202794217882 2.898622128985838 Q -0.18322799694690672 2.9205518227241276 -0.21813542809080688 2.962052606421822 Q -0.25304285923470704 3.003553390119517 -0.2920319621876435 3.051495564689603 Q -0.33102106514058005 3.099437739259689 -0.37215655486133337 3.1508293957434907 Q -0.4132920445820866 3.202221052227292 -0.451436294514846 3.2512189584872586 Q -0.5402516505377604 3.3667440213060544 -0.5791691222594311 3.4227107381695645 Q -0.589373636367363 3.436649697718016 -0.6014807426973995 3.437390672801601 Q -0.613587849027436 3.4381316478851853 -0.618938584821891 3.4314453471826107 Q -0.624289320616346 3.424759046480036 -0.6247833783577004 3.4162066383416723 Q -0.6252774360990548 3.4076542302033084 -0.6096536777619198 3.3882239490806 Q -0.5940299194247848 3.368793667957891 -0.5590524184478777 3.3252163442684926 Q -0.5240749174709706 3.2816390205790937 -0.4838894970483518 3.2315849365154588 Q -0.4820596513419838 3.2295433199118113 -0.4805817161989092 3.227783320981556 Q -0.4986759862997102 3.203008549657428 -0.5335965778003642 3.159371639809047 Q -0.5747127581156504 3.1079926975682106 -0.5978049612200365 3.0820220548881885 Q -0.6001980422731892 3.0833598503652495 -0.6025911233263419 3.08469764584231 Q -0.7232315070115354 3.14602669745877 -0.7880560202301512 3.181161736539433 Q -0.8088196356920382 3.19200513224951 -0.8209291956479101 3.1768729780278937 Q -0.8336019909505668 3.161037002679691 -0.820934102899581 3.1451267194174926 Q -0.817204118596944 3.1404099579735116 -0.8048160637641975 3.135691858188166 Q -0.792428008931451 3.13097375840282 -0.7633938260614868 3.117841382633077 Q -0.7343596431915226 3.104709006863334 -0.6974423960355133 3.087000009315624 Q -0.660525148879504 3.069291011767914 -0.6170973332456727 3.047815099017463 Q -0.5736695176118415 3.026339186267012 -0.5278486209248575 3.0035254780395007 Q -0.48202772423787343 2.980711769811989 -0.43567896170594933 2.957475635074389 Q -0.3893301991740252 2.9342395003367887 -0.3461840012135863 2.9124116770230444 Q -0.30303780325314744 2.8905838537093005 -0.2651704867990037 2.8715372837414237 Q -0.22730317034485992 2.852490713773547 -0.20492058784630796 2.8415062861698797 Q -0.16613834853898013 2.8214389079001787 -0.1489596704620455 2.842905452261076 M -0.5597265430392955 3.062517911965273 Q -0.5397312421146488 3.0903895854691403 -0.5034025622470331 3.1357860481339888 Q -0.4732694711940494 3.173440478406382 -0.4541902084070575 3.1951179014369826 Q -0.42808031828859805 3.1621005713291153 -0.4002108753536717 3.1276751528542865 Q -0.3570695846449037 3.074101070930141 -0.3162506359855992 3.0241172797564073 Q -0.24974400066102964 2.9420313043848845 -0.19900170945339724 2.8806426666094422 Q -0.2459486307201625 2.9049347560938164 -0.3277364822081271 2.94556290120389 Q -0.43641146062755687 3.0002029754350454 -0.4931420308904244 3.028860808027684 Q -0.5271381080914468 3.046252595343263 -0.5597265430392955 3.062517911965273 M 0.06538178280993434 3.0791517846455485 Q 0.08559557028035536 3.09778836972356 0.05901552271007615 3.126617869886292 Q 0.022964423706708925 3.1657199505667784 -0.017402707996343247 3.2085059241286293 Q -0.05776983969939542 3.2512918976904808 -0.09048609880988195 3.2861119778017365 Q -0.12320235792036849 3.3209320579129926 -0.16661173961659959 3.367350212802359 Q -0.2567911986788671 3.463831631797069 -0.38760452356696384 3.604385734948599 Q -0.32288325526693556 3.666509269053616 -0.2567425726687183 3.716454300116052 Q -0.2435910531728625 3.7261274462296052 -0.24276841984620362 3.7385338997295765 Q -0.24194578651954468 3.7509403532295473 -0.24836166007099136 3.7578991980964136 Q -0.2547775336224381 3.76485804296328 -0.2654777835105817 3.764495013035203 Q -0.2761780333987254 3.7641319831071263 -0.2871650726005075 3.752776113391204 Q -0.3221919989271613 3.714964723454693 -0.3672952116771682 3.676446002136555 Q -0.41239842442717506 3.637927280818416 -0.42256758183723103 3.6310037947983402 Q -0.432736739247287 3.624080308778264 -0.43611511434048755 3.6194329025134904 Q -0.43949348943368804 3.6147854962487163 -0.4403630827792637 3.6090793298463644 Q -0.44245949881242863 3.5967245879002427 -0.43171466467283465 3.5864002958286383 Q -0.356247019461362 3.5125250950558127 -0.24091405442940328 3.3874315742347645 Q -0.1255810893974445 3.2623380534137167 -0.09840293413929935 3.232527360444181 Q -0.0712247788811543 3.202716667474645 -0.04897369189902234 3.177252614516652 Q -0.004777035722922596 3.1266558821657537 0.02727172472245354 3.0832506966740447 Q 0.03605417324843896 3.0717301892267086 0.046907182030664685 3.071927532372241 Q 0.05776019081289041 3.0721248755177735 0.06538178280993434 3.0791517846455485 M 0.5772719822343368 3.4700995383423643 Q 0.5866239746387646 3.4755359327152537 0.5898869729983799 3.487859588363018 Q 0.5931499713579951 3.5001832440107825 0.5832473409401799 3.5275319962178404 Q 0.5733447105223648 3.5548807484248988 0.5557729307516603 3.606184513903456 Q 0.5382011509809558 3.6574882793820134 0.5191482732210063 3.7162725468406435 Q 0.5000953954610569 3.775056814299273 0.48028612707792917 3.8378327950310824 Q 0.4604768586948015 3.9006087757628913 0.4425929799854055 3.9600725925181326 Q 0.40147112923764033 4.099869591755749 0.3853818996260327 4.166111419117261 Q 0.3808974551363396 4.1827942383961245 0.36987426519999794 4.187855893401025 Q 0.35885107526365634 4.1929175484059265 0.35144741461015105 4.188613736194055 Q 0.3440437539566457 4.184309923982185 0.34049560628302716 4.176512589430997 Q 0.33694745860940856 4.16871525487981 0.344503349746196 4.144955074783403 Q 0.3520592408829835 4.121194894686996 0.36894673772465353 4.067929322645172 Q 0.3858342345663235 4.014663750603348 0.4052403617869226 3.953478118529388 Q 0.40620979402996044 3.9509136039960775 0.4069527098407947 3.9487387558129514 Q 0.3811349473248605 3.9321666393725443 0.3328163199019837 3.904078601779282 Q 0.27592503277504815 3.8710072026775375 0.24501465808202746 3.8551241027985883 Q 0.2432658931386206 3.8572355844674915 0.24151712819521373 3.8593470661363947 Q 0.15115164976606352 3.9600914707262076 0.10338218002591293 4.016258776572002 Q 0.08793317848167784 4.033866596109374 0.07117752542374475 4.024126389524613 Q 0.053642539665442704 4.013933150075446 0.059712599180561876 3.994522666345291 Q 0.06148831374865688 3.9887774544962813 0.07133777100202171 3.979905444580949 Q 0.08118722825538653 3.971033434665617 0.10352276498957055 3.9483053272415445 Q 0.12585830172375456 3.9255772198174723 0.15389316615256662 3.8957353346863215 Q 0.18192803058137869 3.8658934495551707 0.2146745820170135 3.830188360726485 Q 0.24742113345264832 3.794483271897799 0.28191644983169 3.75666670140021 Q 0.3164117662107317 3.7188501309026214 0.35124685723807897 3.6804490608797558 Q 0.38608194826542624 3.6420479908568897 0.41843883335087656 3.6061163855960006 Q 0.45079571843632693 3.570184780335111 0.4792337240276675 3.5387525465461107 Q 0.5076717296190081 3.50732031275711 0.5245796131602234 3.4889965270335925 Q 0.553502334873083 3.456282035977937 0.5772719822343368 3.4700995383423643 M 0.27348434693047957 3.8231889444433014 Q 0.3021929238156859 3.841962858691523 0.35245988298948516 3.871183478445804 Q 0.3941541824592256 3.895420736691603 0.4197723781676441 3.9087487893020882 Q 0.43220238014430923 3.8685323063590213 0.44576496428199286 3.8263674916650317 Q 0.4666569231242603 3.7608321632248196 0.4866792331272477 3.6994833812328793 Q 0.5190681785926771 3.5989239654304446 0.5442275327572805 3.5233570952891937 Q 0.5092158169996085 3.5629588476197243 0.44760991036533704 3.630372578371493 Q 0.3659882566532211 3.7205595746167894 0.3234286648537563 3.767764554408341 Q 0.29800347302771046 3.7962560821261904 0.27348434693047957 3.8231889444433014 M 0.7006348649673777 4.112668596100866 Q 0.667741462605493 4.209617651042154 0.6431691662421422 4.280799945386197 Q 0.6381588521661963 4.295289279120814 0.6279365991018526 4.299367693832279 Q 0.617714346037509 4.303446108543745 0.6090744547890463 4.300171069431822 Q 0.6004345635405836 4.2968960303199 0.5963782119251505 4.287887180535219 Q 0.5923218603097175 4.278878330750538 0.5972743584789656 4.265813129350423 L 0.7174123785845992 3.94887663087023 Q 0.7797180007138507 3.7845079680945983 0.8212352783223915 3.650820551989722 Q 0.8270002562335714 3.6317971211473745 0.8410955112877749 3.6289457994302055 Q 0.8468498565324845 3.6277529307224934 0.8521469908568471 3.629037839623487 Q 0.8574441251812098 3.630322748524481 0.8766410037436507 3.6318153294321522 Q 0.9246841711991337 3.636048118813741 0.9674621693317662 3.652263556367892 Q 1.0102401674643986 3.6684789939220432 1.0346725766353508 3.688585708752933 Q 1.059104985806303 3.7086924235838223 1.0715646487101727 3.7355881228857557 Q 1.0980541751432407 3.792866818180466 1.0675403961004535 3.8733653171295575 Q 1.0282399267573872 3.97704401211111 0.9098924702289994 4.0425648661689175 Q 0.8909162226268793 4.05320631805787 0.8704139005914941 4.0627872798153035 Q 0.8637893937023571 4.204880997254679 0.869577366476862 4.357463984195854 Q 0.8710654288143892 4.384056914249665 0.8468414894132056 4.386924982729631 Q 0.8408254440642746 4.387536635322202 0.8340821143093768 4.384980507234848 Q 0.818909622360857 4.379229219038302 0.8191378289394847 4.359553066459482 Q 0.8205086639374339 4.315245206084431 0.8232100625525225 4.275056829564746 Q 0.8259114611676112 4.2348684530450615 0.8283154068678126 4.196736396024401 Q 0.8330959188389482 4.128174159770737 0.8332738851291854 4.078111954150976 Q 0.7714169665346806 4.101420010189486 0.7006348649673777 4.112668596100866 M 0.7145475011569983 4.072150801664781 Q 0.7958356189888982 4.058618420436739 0.879238602987511 4.0140746438605515 Q 0.991556324452334 3.9530163812891432 1.0260640536316117 3.861981429598024 Q 1.0618498468545665 3.7675748130294555 1.0060651939895076 3.7150980290430233 Q 0.9755710847534788 3.686186348624976 0.9153634480239413 3.6758964447505558 Q 0.8868944910485161 3.670889187722773 0.8668410065520794 3.6729280296980105 Q 0.8132748914828796 3.7977100666410486 0.7806842583691174 3.883687521015995 Q 0.7460167711843799 3.9751439308167953 0.7435914931491369 3.9821778686292633 Q 0.7411662151138937 3.9892118064417312 0.7392202110950293 3.994981369925156 Q 0.7372742070761651 4.000750933408581 0.7353791741066817 4.007021834004417 Q 0.7334841411371983 4.0132927346002525 0.7298028621543102 4.024911740569832 Q 0.7261215831714223 4.036530746539411 0.7200949051560208 4.054972961266618 Q 0.7176407191674288 4.062718965246337 0.7145475011569983 4.072150801664781 M 1.6556097359014332 3.989589930548671 L 1.6293818027961136 4.150173093710444 Q 1.6014531972547557 4.31824098032986 1.5750971863438443 4.520837833047471 Q 1.5731774839874846 4.535139687484939 1.5642882853129867 4.540516057067789 Q 1.555399086638489 4.5458924266506395 1.5456173577876235 4.544266952254053 Q 1.535835628936758 4.542641477857466 1.529088444637958 4.533752935602771 Q 1.5223412603391582 4.524864393348077 1.5247055867341937 4.510636424110454 Q 1.5646232872445172 4.311663884704061 1.5867888471979759 4.17827667310135 L 1.6250613807176144 3.947961421067336 Q 1.6293467223086164 3.922173226824145 1.6326702434620288 3.8994235156518395 Q 1.61660827262435 3.935591084542687 1.590998044091799 3.9934739718080126 Q 1.533336446244129 4.1205057433844585 1.5106486216242698 4.1690508694177915 Q 1.4879607970044106 4.2175959954511235 1.4655315705840084 4.264584937349091 Q 1.4192666732669386 4.361527419016066 1.3811409634892624 4.434235921315806 Q 1.3769955152603108 4.442685090890251 1.3684757425850376 4.445838340279723 Q 1.359955969909764 4.448991589669195 1.3528419852909528 4.447809426471677 Q 1.339058640092006 4.445518985276486 1.3371231836603679 4.426921286531164 Q 1.336082226664507 4.419437875913129 1.3324006217394655 4.390726621337443 Q 1.328719016814424 4.362015366761757 1.3231784663368023 4.319745048265872 Q 1.3176379158591804 4.277474729769988 1.3110550955460913 4.224979371224168 Q 1.3044722752330022 4.172484012678349 1.2974065754417086 4.117395451520124 Q 1.2903408756504149 4.0623068903618975 1.2837943415174449 4.0082184050807905 Q 1.277247807384475 3.954129919799684 1.272039083886352 3.9084879784138087 Q 1.2677974321842447 3.8707740716846453 1.2650426743562802 3.843359090205261 L 1.2476083928721058 3.953773622196525 Q 1.2141383973423832 4.155188311716619 1.1964923065557231 4.287498936563153 Q 1.1788462157690631 4.419809561409687 1.1757443502151854 4.4412254004659655 Q 1.1726424846613077 4.462641239522244 1.1693843152502978 4.46712573534853 Q 1.1661261458392882 4.471610231174816 1.1616073330922927 4.474057632646942 Q 1.14182878398906 4.485848703129291 1.1275190525139533 4.467479224181536 Q 1.1207718682151533 4.458590681926842 1.1250604919051717 4.439656561263399 Q 1.12934911559519 4.420722440599956 1.135003959062535 4.3921919605050626 Q 1.14065880252988 4.36366148041017 1.1464231609573858 4.331722434825364 Q 1.1607621410857152 4.256431889049874 1.1714754950632202 4.191961403441897 L 1.2333755384579363 3.7864669058488687 Q 1.236700372450955 3.7664588241084624 1.2474043534602748 3.759784868589704 Q 1.2581083344695945 3.7531109130709455 1.2705578075525144 3.7551796986666015 Q 1.2941228816023265 3.759095614258379 1.2982867095857693 3.7890292567305215 Q 1.2987326464640516 3.7918447713622654 1.3003323373973716 3.80558920470188 Q 1.3019320283306917 3.8193336380414946 1.3046472178795205 3.8414876726764184 Q 1.3073624074283494 3.8636417073113423 1.310970127153546 3.892797585925704 Q 1.3145778468787428 3.9219534645400653 1.3185952173021023 3.955517984521458 Q 1.322612587725462 3.989082504502851 1.3270020098272592 4.025907163154663 Q 1.3422535029639784 4.154089589778071 1.3696283668914084 4.377037693443182 Q 1.4181203229206762 4.288689526071129 1.5617188657014083 3.9717031479881815 Q 1.5899942127868003 3.908780313058127 1.6187128710712615 3.8431897338960184 Q 1.6318141825567196 3.8138406088246026 1.6607147450706403 3.8186431468145186 Q 1.6722749700762087 3.820564162010485 1.677282570079638 3.8330472955943105 Q 1.6822901700830675 3.8455304291781367 1.6778544324131626 3.8667246126348807 Q 1.6711256278688542 3.896218882426773 1.6556097359014332 3.989589930548671 M 1.9800536942091418 3.8240682508024255 Q 1.990864580654449 3.8236955847632803 2.000184207724826 3.832394101768415 Q 2.0095038347952037 3.8410926187735495 2.015670063445486 3.8695178533496675 Q 2.021836292095768 3.8979430879257855 2.034254226432597 3.950731710785216 Q 2.046672160769426 4.003520333644646 2.0618160339427347 4.063430811500311 Q 2.0769599071160436 4.123341289355975 2.0935871269838797 4.187034039572792 Q 2.110214346851716 4.25072678978961 2.126709580830688 4.31059068439038 Q 2.166270222188203 4.450837478507558 2.187891251055883 4.515485557461153 Q 2.1929703138851098 4.531997063214691 2.186329893591733 4.542147722606504 Q 2.179689473298355 4.552298381998317 2.171130854862487 4.552593409279307 Q 2.1625722364266187 4.5528884365602975 2.155419400329416 4.548174127089813 Q 2.1482665642322134 4.543459817619329 2.1420226224214822 4.5193216561369605 Q 2.1357786806107515 4.495183494654592 2.121737575412422 4.441097858120207 Q 2.107696470214093 4.387012221585822 2.0915740510788527 4.324880531223981 Q 2.0910304309671788 4.322193337364285 2.0905023386071355 4.3199565971064775 Q 2.059824910423872 4.319661123411726 2.003968663789785 4.321586564613979 Q 1.938202437914166 4.323853616352114 1.9035796215753298 4.326851067635257 Q 1.9032223344832284 4.329569316998215 1.9028650473911268 4.332287566361172 Q 1.879952536655504 4.465668118165681 1.8693893502133592 4.5386414528669174 Q 1.8656767295276655 4.561769864079506 1.8463072246464902 4.562437557399641 Q 1.8260368125615392 4.563136306223039 1.8208490554708943 4.543471625256287 Q 1.819295833894027 4.537662311686638 1.8229151392653475 4.5249098610691005 Q 1.8265344446366678 4.512157410451563 1.8333537316829764 4.481029603068705 Q 1.840173018729285 4.449901795685847 1.8480331115486357 4.40971833301034 Q 1.8558932043679865 4.3695348703348325 1.864623223290144 4.321880103849099 Q 1.8733532422123018 4.274225337363365 1.8824405482265607 4.223852321514674 Q 1.8915278542408198 4.173479305665983 1.9005918686276322 4.12243060941446 Q 1.9096558830144448 4.071381913162937 1.9179354483347146 4.023742674428835 Q 1.9262150136549845 3.9761034356947325 1.9335703057417386 3.934358913164249 Q 1.9409255978284927 3.892614390633766 1.945492542463069 3.8681035631122516 Q 1.952576024493986 3.8250154436519206 1.9800536942091418 3.8240682508024255 M 1.910694159109509 4.284663855378701 Q 1.944990743859506 4.285285560662292 2.003099258503032 4.283282480701884 Q 2.051297793905027 4.281621011277361 2.0800802411709527 4.2792758743673085 Q 2.069207690132882 4.2386106793797715 2.058257500336656 4.195693216382795 Q 2.0410788964813302 4.129088045505338 2.025391403196347 4.066490373789978 Q 1.9993128679784433 3.9641128865392252 1.9804102372783086 3.886743412471354 Q 1.9718354958724615 3.9389027149759652 1.955540485814237 4.028760221469885 Q 1.934414410539121 4.148549526459604 1.9234940858094618 4.211162428317421 Q 1.9171251779627474 4.248814049051837 1.910694159109509 4.284663855378701 M 2.834923605418671 4.228320254887195 Q 2.8309992601239147 4.213973499740452 2.835972625941135 4.203968449207778 Q 2.840945991758355 4.193963398675105 2.850293120111536 4.191406628255794 Q 2.8596402484647174 4.188849857836482 2.8686568791310805 4.193626312606514 Q 2.877673509797444 4.198402767376545 2.88060943522589 4.2125526114761 Q 2.9002836836523564 4.301561338524272 2.871870523401674 4.366808643591858 Q 2.8446017660029064 4.429406519662087 2.7824324937003526 4.446412015939365 Q 2.6650499515906354 4.478520295623737 2.5826611892974727 4.312275877411661 Q 2.5518996710150175 4.251065690804933 2.527818461251739 4.163028784222645 Q 2.50373725148846 4.0749918776403575 2.495757256017238 4.00311098906073 Q 2.487777260546016 3.931230100481102 2.496035930636846 3.874299434959843 Q 2.513693809040054 3.752649664541229 2.601078590388399 3.72874683410953 Q 2.668899614718458 3.7101953836252264 2.7161329816051487 3.75475068622955 Q 2.7660567055507794 3.8023083118640226 2.8013758132035886 3.9314291081847115 Q 2.805300158498345 3.9457758633314546 2.8007410788062943 3.9547330342206246 Q 2.796181999114244 3.9636902051097946 2.787052245839044 3.9661875157519124 Q 2.7670537386647958 3.9716578152536943 2.7601564045103752 3.9464423062079033 Q 2.716156169387347 3.7855847485019947 2.656412362622395 3.7687499948463126 Q 2.6351798672123308 3.7628758622315006 2.6108338584784634 3.7695353572771477 Q 2.5864878497445964 3.7761948523227957 2.5708874337674676 3.795181402405798 Q 2.5552870177903393 3.8141679524888 2.5468881726781074 3.8423993107710226 Q 2.5384893275658755 3.8706306690532455 2.536599000023013 3.9064272946880343 Q 2.5347086724801504 3.9422239203228227 2.5380986712163907 3.9819498967616944 Q 2.5451165077976445 4.062271349951361 2.5655112113749396 4.13683100169883 Q 2.585905914952235 4.211390653446299 2.6029963405468255 4.255079179490105 Q 2.6200867661414153 4.298767705533911 2.6375223565080663 4.32834345090938 Q 2.654957946874717 4.35791919628485 2.6724433354426447 4.374864790791449 Q 2.6899287240105725 4.391810385298047 2.7074863071257527 4.399624294214262 Q 2.7374215349157884 4.413398056498825 2.7752447984844753 4.403052055267194 Q 2.817415563612781 4.3915168584916975 2.8349754284858815 4.349798583798739 Q 2.855890510421924 4.301555192135986 2.834923605418671 4.228320254887195 M 3.3155131127833566 4.249884222408487 Q 3.2303051175882826 4.290051042306769 3.148635162445969 4.220919486315595 Q 3.0669652073036557 4.151787930324422 2.985862824542533 3.979741164906617 Q 2.9218649727428794 3.843979143854179 2.924500389776524 3.730123366042732 Q 2.9261908086383097 3.674514651278321 2.9462181431467713 3.6324358509092307 Q 2.966245477655233 3.5903570505401405 3.00884947525277 3.570273640591 Q 3.051453472850307 3.5501902306418596 3.0937277087817523 3.5574190525847573 Q 3.1360019447131977 3.5646478745276546 3.176589457653254 3.596838858691675 Q 3.256180353054977 3.659974423474339 3.3311794366488847 3.8169598421609514 Q 3.410022235065594 3.9820991359858477 3.405348349247378 4.0969158425029955 Q 3.40072110797843 4.209717402510206 3.3155131127833566 4.249884222408487 M 3.0748506849480974 3.597709875597001 Q 3.0500195990094956 3.594715639601616 3.0267810548653844 3.605670226846602 Q 3.003542510721273 3.6166248140915878 2.990458077266852 3.637492324013002 Q 2.9773736438124305 3.6583598339344165 2.972078786467432 3.68676687458671 Q 2.9667839291224336 3.7151739152390038 2.968713751800755 3.74939361872395 Q 2.970643574479077 3.783613322208896 2.9780567443731405 3.8204802313417505 Q 2.9940595208827427 3.8956526388939765 3.0258662610414295 3.963125955663281 Q 3.0576730012001163 4.030599272432586 3.0842939761692354 4.073858651442729 Q 3.1109149511383545 4.117118030452871 3.135547351693386 4.146116985336298 Q 3.160179752248417 4.175115940219726 3.1830885347264366 4.191473584866778 Q 3.205997317204456 4.207831229513831 3.2266087281540776 4.214558622552096 Q 3.2644477810807686 4.226120481035929 3.301140219203049 4.20882376433332 Q 3.409586758542234 4.157702357190053 3.338846475268835 3.9473855228140096 Q 3.3226216911010287 3.8992254074047947 3.300328145128777 3.851932931602744 Q 3.278034599156525 3.8046404558006937 3.258460583378937 3.7705163991371364 Q 3.2388865676013485 3.736392342473579 3.2170963622074 3.7065518740296555 Q 3.195306156813451 3.6767114055857313 3.1718646578892455 3.652881393259668 Q 3.1484231589650395 3.6290513809336042 3.124052464925869 3.6148777462629953 Q 3.099681770886699 3.6007041115923863 3.0748506849480974 3.597709875597001 M 3.7457329558817607 3.294728049533349 L 3.8442734335204634 3.4242063528615683 Q 3.9470779768743403 3.5600667495414045 4.076030951705515 3.718532059071308 Q 4.085093400869546 3.729761498622633 4.08288311306111 3.739912253804883 Q 4.080672825252673 3.7500630089871323 4.072765606398291 3.7560463421982044 Q 4.064858387543909 3.762029675409277 4.053765360090859 3.760815006194495 Q 4.0426723326378085 3.7596003369797137 4.033969302512613 3.7480989277369763 Q 3.916974226959578 3.5822808148897956 3.835383319535866 3.4744551032391326 L 3.694503019384256 3.2882760411223204 Q 3.6787287772823385 3.267429736869859 3.664498903981472 3.2493713355806584 Q 3.679709108897142 3.285905287092752 3.7041173205699804 3.344305215573819 Q 3.7566827351954366 3.4735290834986365 3.776321855619416 3.5233855935705023 Q 3.7959609760433954 3.573242103642368 3.8146482025474313 3.6218406470783098 Q 3.853207605317719 3.722097606604866 3.8797714767184335 3.7997793727339206 Q 3.883054356313668 3.808599571659106 3.8794842200481696 3.8169532316471777 Q 3.8759140837826713 3.8253068916352495 3.8701633791613026 3.8296584066978476 Q 3.8590213889574008 3.8380894671316312 3.8441889918737147 3.8267043721837455 Q 3.838040381616939 3.8223135160194386 3.8146649933766206 3.8052406844221816 Q 3.791289605136302 3.7881678528249245 3.7567923244955046 3.763119596324148 Q 3.7222950438547073 3.7380713398233714 3.6796579157698246 3.706747682616687 Q 3.637020787684942 3.675424025410003 3.59216898821962 3.642667502872548 Q 3.547317188754298 3.6099109803350933 3.503548457230054 3.5774653413381907 Q 3.4597797257058103 3.545019702341288 3.4230629628600022 3.517411787894951 Q 3.3927667799623826 3.4945541486517566 3.3709698635476837 3.4776999404230575 L 3.439137185095624 3.566291922671448 Q 3.562339455305429 3.7291087472639495 3.6462569648324292 3.832913070690853 Q 3.7301744743594294 3.936717394117757 3.743588438586059 3.9536975382904505 Q 3.7570024028126885 3.9706776824631445 3.758017264704629 3.9761271251931034 Q 3.7590321265965696 3.9815765679230624 3.7577011430869365 3.9865402284176223 Q 3.7526588003889585 4.009007874664278 3.7294819377137745 4.006763056578704 Q 3.7183889102607246 4.005548387363922 3.7075927611270814 3.9894134444654634 Q 3.696796611993438 3.973278501567004 3.6799734049750112 3.9495520341792867 Q 3.663150197956584 3.9258255667915694 3.6439277992137287 3.8996754263039977 Q 3.599130627828967 3.8374863109363058 3.5596950225741733 3.7853705503051516 L 3.3078895749228865 3.4615628612617546 Q 3.29565093880933 3.4453890045141553 3.2981672993337474 3.4330283887760378 Q 3.300683659858165 3.4206677730379202 3.31074739294556 3.413052621678374 Q 3.329796602003844 3.3986382280335183 3.354391043030947 3.4162016526907455 Q 3.356741699257092 3.417814227540934 3.3678198669838593 3.4261053468095772 Q 3.3788980347106263 3.434396466078221 3.3968484615964116 3.4476612947431358 Q 3.4147988884821974 3.460926123408051 3.4384462464139283 3.4783583740441437 Q 3.462093604345659 3.4957906246802364 3.4892232219428965 3.5159574319567355 Q 3.516352839540134 3.536124239233235 3.546105083054929 3.5582630403987583 Q 3.649650271300175 3.6353457007655434 3.8303298682711016 3.768800274839789 Q 3.7995412722569206 3.6728371004809732 3.6681762711915633 3.350588528918595 Q 3.6419420993771183 3.2867876932058517 3.6140761094141993 3.2208303432600953 Q 3.601779743405785 3.1911349751350198 3.6251419809300955 3.1734569451932155 Q 3.6344868759398197 3.1663857332164937 3.646993098172786 3.1713353884899087 Q 3.6594993204057524 3.1762850437633228 3.6718350275158755 3.194081097010254 Q 3.688619320685162 3.219250051377885 3.7457329558817607 3.294728049533349 M 4.175700326423604 2.8117010778821996 L 4.301427424523112 2.914984927391668 Q 4.432774603490194 3.0234964018890262 4.594775808950634 3.1479782618991585 Q 4.606182214245459 3.1568169391609264 4.606370724512132 3.1672038379688217 Q 4.606559234778805 3.1775907367767164 4.600243752136102 3.1852352815843243 Q 4.593928269493398 3.1928798263919322 4.582853908161671 3.194254308283341 Q 4.571779546829944 3.1956287901747493 4.5606602089279695 3.1864426336035443 Q 4.408600530574195 3.0520501171794243 4.304356737743177 2.9659298993243786 L 4.124362455454953 2.8172289898279987 Q 4.104208655507623 2.80057908104269 4.0862001433335 2.786286123316769 Q 4.109420401992918 2.8183313965166397 4.146630229326558 2.869534337774546 Q 4.227561151420126 2.98316583299168 4.2581613757794265 3.0271543873749978 Q 4.288761600138726 3.071142941758316 4.318145646914998 3.114126760266658 Q 4.3787719608478985 3.202798827652167 4.422523039987993 3.272267807253137 Q 4.427750221819626 3.2800940309667603 4.426201335539116 3.2890455928104045 Q 4.4246524492586055 3.2979971546540487 4.420059370973004 3.3035568236050366 Q 4.411160281794649 3.314328682197575 4.394103368095828 3.306668258887373 Q 4.387108362180589 3.303812577148954 4.360427637882503 3.292586299713249 Q 4.333746913584417 3.281360022277544 4.294405682777014 3.264936104234115 Q 4.255064451969611 3.248512186190686 4.206356271997499 3.227857661361174 Q 4.157648092025387 3.2072031365316622 4.106454641065673 3.1856646996603475 Q 4.055261190105959 3.164126262789033 4.005193298854394 3.1426407417392643 Q 3.955125407602828 3.121155220689495 3.9130345482782247 3.102752036854408 Q 3.8782861741782964 3.0874916021505907 3.853191816635927 3.076114294923419 L 3.9399408201619353 3.1466120497313836 Q 4.097348947336772 3.2766535786925033 4.202929963162119 3.3583244735365 Q 4.308510978987467 3.4399953683804965 4.325477053233279 3.453427123927867 Q 4.3424431274790924 3.4668588794752377 4.344686529222221 3.4719277569984914 Q 4.346929930965349 3.476996634521745 4.346778679595754 3.482133420056627 Q 4.34704986848601 3.505158337088714 4.323979531727419 3.5083151920975544 Q 4.312905170395692 3.5096896739889627 4.298681228572039 3.4964770778228145 Q 4.284457286748385 3.4832644816566662 4.2626190060754166 3.4640536761989575 Q 4.240780725402447 3.4448428707412493 4.216049282515853 3.4238265391466016 Q 4.158126069483011 3.3736351651243286 4.107741569614686 3.332010393161056 L 3.788090589313063 3.074948817380657 Q 3.7724540203884107 3.0620307847024 3.7720540684136843 3.049422972436501 Q 3.7716541164389583 3.036815160170602 3.7796920034387624 3.0270857395063735 Q 3.794906575259821 3.008669336106227 3.8228865989207743 3.0200920630599026 Q 3.8255456095630946 3.02111950879813 3.8382363220307045 3.026634422756997 Q 3.850927034498314 3.0321493367158645 3.871451245196461 3.040920327544133 Q 3.8919754558946074 3.049691318372401 3.9190036595021307 3.0612046632009564 Q 3.946031863109654 3.0727180080295113 3.977078788638951 3.086089794816551 Q 4.008125714168249 3.099461581603591 4.042179129649304 3.1141478815217085 Q 4.160701331172415 3.165293069800563 4.367272943475042 3.253516700952358 Q 4.315197796254805 3.167232012162658 4.113104642592187 2.8839313545185346 Q 4.072873333116708 2.8278936873086797 4.0305571477846085 2.7701336157417233 Q 4.011748288504777 2.7440713380652015 4.030407669040037 2.7214851829518145 Q 4.037871421254141 2.71245072090646 4.051181688233955 2.7143850101278693 Q 4.064491955213769 2.716319299349279 4.080596827281031 2.7307934928249598 Q 4.1027296714418915 2.7514169253836673 4.175700326423604 2.8117010778821996 M 4.576187039839518 2.7929650004922983 L 4.407648244897938 2.703831199075058 Q 4.263855517839631 2.6286525157273273 4.159196374835257 2.5856318542979064 Q 4.145788310068842 2.580147577392483 4.143564998163852 2.569321656820267 Q 4.14134168625886 2.558495736248051 4.146458013320025 2.54870984232325 Q 4.15157434038119 2.5389239483984483 4.161942009648852 2.534172323539347 Q 4.172309678916514 2.5294206986802465 4.192861792260586 2.5411831051521143 Q 4.213413905604657 2.5529455116239825 4.245045482881947 2.5707548611438105 Q 4.276677060159237 2.5885642106636384 4.312207582571882 2.608157729984228 Q 4.383268627397173 2.647344768625408 4.441584566704153 2.677833901316432 Q 4.499900506011133 2.708323034007456 4.521374117786948 2.7192957095507184 Q 4.542847729562763 2.7302683850939804 4.563027771330161 2.740310444650448 Q 4.670318768036406 2.7938620172482387 4.703898631105387 2.798703318196103 Q 4.737478494174368 2.8035446191439677 4.759547994670731 2.7982991468503275 Q 4.803686995663458 2.7878082022630477 4.8254052819639135 2.74626808111287 Q 4.8477500572922665 2.703529687237206 4.8308136195054185 2.6590724459078943 Q 4.813096568345017 2.6131898670670273 4.756887160907799 2.577698813798094 Q 4.68728792381427 2.535715805464114 4.643750681454949 2.5129533707838285 Q 4.600213439095628 2.4901909361035437 4.568354797032269 2.4737886889851675 Q 4.53649615496891 2.4573864418667912 4.496535495675944 2.4375111524298227 Q 4.3798306766215696 2.3805635996862673 4.286691887835086 2.3359369978247013 Q 4.273701482420604 2.3296538724356206 4.27146905296056 2.3193317909432163 Q 4.269236623500517 2.3090097094508124 4.274039706047733 2.2998229518887534 Q 4.27884278859495 2.2906361943266953 4.288801916065732 2.28617957887144 Q 4.298761043536514 2.2817229634161844 4.311333789599064 2.2888049372889228 Q 4.370012682927666 2.3215182559751586 4.427824783154835 2.3519982711111314 Q 4.485636883382004 2.3824782862471037 4.542545720287532 2.4127403541520587 Q 4.6807282728501365 2.486003100195889 4.738943919051549 2.522034462764841 Q 4.7971595652529615 2.5580658253337925 4.823216564164533 2.5831327558243125 Q 4.849273563076105 2.6081996863148325 4.864468171195254 2.6375052850295897 Q 4.898361030059495 2.7030343403409143 4.865157111580914 2.766542794791667 Q 4.8102349068018775 2.8715913703925975 4.680428523491961 2.8367845104053764 Q 4.639695494290271 2.826168918970879 4.5949599792054645 2.8027799952626964 L 4.576187039839518 2.7929650004922983 M 4.466722643653436 1.813045460410342 Q 4.68074080022236 1.8807613754911727 4.769810648576913 1.9077672336720246 Q 4.858880496931467 1.9347730918528763 4.900569326448681 1.9471775973747887 Q 4.942258155965896 1.959582102896701 4.979914730614937 1.9705285426709362 Q 5.059541189760698 1.9937292119618206 5.088982978668128 2.0014784652611963 Q 5.11842476757556 2.0092277185605725 5.123247396532093 2.0135158311343178 Q 5.128070025488626 2.017803943708063 5.130644214609122 2.023294264323914 Q 5.141241523101633 2.045817656746326 5.122285760743494 2.0617355128184034 Q 5.114755767389934 2.067930122853327 5.103357591961576 2.0682420753496755 Q 4.980565648158235 2.072458226654959 4.833871432460036 2.08638262905814 Q 4.687177216761837 2.1003070314613215 4.626852673928031 2.105094877934768 Q 4.517301211678252 2.1137965084263026 4.427148243257202 2.117547127289351 L 5.030555093673441 2.294376493554141 Q 5.043926354201243 2.298430641755625 5.048303855384898 2.307293622125531 Q 5.052681356568552 2.3161566024954374 5.0500003875966035 2.3249988876831775 Q 5.047319418624654 2.3338411728709176 5.03791382532676 2.339231612029371 Q 5.028508232028867 2.3446220511878244 5.014405088505771 2.33987501405309 Q 4.8970968574370355 2.299597486289023 4.745268350798765 2.253563287356046 L 4.489489076831451 2.1760113556308878 Q 4.42263277419244 2.1557406146234688 4.374062145949963 2.1419560314779664 Q 4.358102899513553 2.137117209431034 4.352634472231013 2.1248620722760507 Q 4.347166044948472 2.1126069351210672 4.350435519304508 2.101823660501872 Q 4.357759141862027 2.0776691253548742 4.382973705591066 2.0768364532638484 Q 4.408188269320106 2.0760037811728225 4.451108098606792 2.0734745768700913 Q 4.494027927893478 2.07094537256736 4.546620608669452 2.0675810998713144 Q 4.599213289445425 2.0642168271752688 4.658197946868828 2.0599646952357547 Q 4.7171826042922325 2.0557125632962405 4.7757359307308676 2.051329652382485 Q 4.8342892571695035 2.0469467414687292 4.889215264299657 2.0428769812024665 Q 4.944141271429809 2.038807220936204 4.988963096085907 2.035441750089014 Q 5.033784920742005 2.0320762792418243 5.065522240092716 2.029924416922562 Q 5.06694701202126 2.0298854228605183 5.067940452965038 2.0297156498242335 Q 4.9823533481566145 2.007533618751059 4.882061995804043 1.9794803306251316 Q 4.76020409421308 1.9448880937871336 4.699360029935741 1.9280886958400232 Q 4.638515965658402 1.9112892978929126 4.576162242934376 1.8940321735359573 Q 4.5138085202103495 1.8767750491790016 4.452336956486881 1.8604918687348015 Q 4.438534364974311 1.8563069415590765 4.434137366759635 1.8467315752248976 Q 4.429740368544958 1.8371562088907192 4.432486727004028 1.828098258210595 Q 4.435233085463097 1.8190403075304709 4.444076568801982 1.8139504203825438 Q 4.4529200521408665 1.8088605332346168 4.466722643653436 1.813045460410342 M 4.615173610489677 1.6167147503632977 Q 4.6394093307668935 1.620725439361621 4.810415964750824 1.6474153707077521 Q 4.9814225987347545 1.6741053020538832 5.171076484113244 1.698231477269905 Q 5.185396541974786 1.700010308439416 5.1916118000906115 1.7098758245737151 Q 5.197827058206438 1.7197413407080144 5.1963327000711725 1.7293159308920105 Q 5.194838341935908 1.7388905210760066 5.187011562308381 1.7451958869367954 Q 5.179184782680855 1.7515012527975842 5.156166644387959 1.7469963317091293 Q 5.133148506095062 1.7424914106206744 5.092317176762173 1.7352062883503307 Q 5.0514858474292845 1.7279211660799874 5.005310560784398 1.719801983455077 Q 4.913850647046624 1.7037026282643513 4.834359282030657 1.6912959804901733 Q 4.754867917014689 1.678889332715995 4.710522851787934 1.672196247164047 Q 4.666177786561177 1.665503161612099 4.628631075318099 1.6605553986821324 Q 4.54559122189349 1.6489634525143497 4.495603576521133 1.644811032442607 Q 4.481144508600497 1.6439228608250958 4.475249720000934 1.6363882511151164 Q 4.469354931401372 1.6288536414051373 4.470953547080958 1.6186110565571414 Q 4.472552162760544 1.6083684717091455 4.480844874879486 1.6005392041471311 Q 4.489137586998426 1.5927099365851165 4.505510531166099 1.5959496173423633 Q 4.521883475333771 1.5991892980996099 4.5378110897254444 1.6023594738273095 Q 4.553738704117118 1.605529649555009 4.572338297164789 1.609116855459992 Q 4.5909378902124605 1.6127040613649746 4.615173610489677 1.6167147503632977 M 4.504197786997971 1.3496876085107932 Q 4.504744258280559 1.3370792532246965 4.5076214591209265 1.1874240487516676 Q 4.508519233370892 1.1667103222102229 4.524611463614369 1.1597383384611843 Q 4.529192514971202 1.1581323131640946 4.535046394211175 1.1583860319738672 Q 4.540900273451149 1.1586397507836401 4.546686549419845 1.1656577040552967 Q 4.552472825388541 1.1726756573269532 4.551222336893106 1.1911183750215024 Q 4.549971848397671 1.2095610927160516 4.548319853577963 1.2268585475713927 Q 4.546667858758256 1.2441560024267337 4.545573504914988 1.2589963328966838 Q 4.5435214150491 1.2855249050150601 4.543152006528294 1.304456954775726 Q 4.646564504583349 1.3125482132501514 4.767694775010493 1.317798240929296 Q 4.897380715096059 1.3234190884073396 4.945347253439294 1.325272481762787 Q 4.99331379178253 1.3271258751182342 5.037031770543836 1.32811841096962 Q 5.14876432500097 1.3316076899775993 5.202858683864519 1.3325988145508927 Q 5.218188346400586 1.3328120884195314 5.225296242331225 1.340564039790363 Q 5.232404138261864 1.3483159911611948 5.232023560047205 1.3570968100211551 Q 5.231642981832546 1.3658776288811154 5.224302295201747 1.3739056384494255 Q 5.216961608570948 1.3819336480177355 5.203002358075627 1.381328626240585 L 5.143993750441296 1.379222219714411 L 4.714153943819992 1.3560806615811225 Q 4.593924270198999 1.3508696675650198 4.541102739218591 1.3517382870985888 Q 4.539618048744904 1.3755845856300366 4.540444812059246 1.408553953212108 Q 4.541468154966891 1.4473967168656738 4.54184250296102 1.4647819974628593 Q 4.54221685095515 1.4821672780600448 4.535150105604691 1.4890793000364282 Q 4.528083360254231 1.4959913220128116 4.519302541394271 1.4956107437981523 Q 4.510521722534311 1.4952301655834932 4.502278322180224 1.4876545713353964 Q 4.494034921826137 1.4800789770872995 4.495403216949744 1.4641226590254226 Q 4.496771512073352 1.4481663409635457 4.497729248095972 1.4364780993151198 Q 4.498686984118592 1.4247898576666937 4.499517860736327 1.4160285556382546 Q 4.50034873735406 1.4072672536098154 4.50109178822995 1.400532294395213 Q 4.50183483910584 1.3937973351806108 4.502362499195953 1.3868274683487107 Q 4.502890159286065 1.3798576015168105 4.503280495916485 1.3708516334553127 L 4.504197786997971 1.3496876085107932 M 5.055020375957058 0.8386106362805081 L 5.185054549595544 0.8211757350783444 Q 5.205216115719405 0.8189646024624326 5.2144975326186485 0.8374439184951301 Q 5.216830170913547 0.8421757562039927 5.2175672151188515 0.8488962782452792 Q 5.218304259324156 0.8556168002865658 5.211747001844751 0.8640441405591918 Q 5.205189744365347 0.8724714808318177 5.189137100026574 0.872871714376113 Q 5.173084455687802 0.8732719479204084 5.157206692470052 0.8731995785217744 Q 5.141328929252302 0.8731272091231406 5.125052267512153 0.8735520108076127 Q 5.087073390118473 0.8745432147380477 5.066015754389108 0.8768526199146669 Q 5.044958118659744 0.8791620250912859 5.029774071646514 0.8812806934260606 Q 5.014590024633284 0.8833993617608353 4.998559044294904 0.8860643374590698 Q 4.985615171295437 0.8879373243920765 4.969584190957056 0.8906023000903108 Q 4.933570764777519 0.9095148961308436 4.89297290973018 0.932104234874533 Q 4.839922544486911 0.9610469085787536 4.782588376337531 0.99227308429752 Q 4.549962243000115 1.1202590862319288 4.529800676876255 1.1224702188478408 Q 4.518599806807444 1.1236986258566806 4.5111422405608534 1.117715148020698 Q 4.503684674314263 1.1117316701847153 4.502081936923201 1.1012519886003864 Q 4.500479199532139 1.0907723070160575 4.507233002132957 1.0841371059544416 Q 4.513986804733776 1.0775019048928254 4.552160892226974 1.0617530247515217 Q 4.590334979720173 1.0460041446102177 4.649930985883707 1.0167970296436224 Q 4.709526992047239 0.9875899146770271 4.763473426896014 0.9585489684120992 Q 4.835003108171981 0.9203248778086349 4.915106203539739 0.8734523336709534 Q 4.8959997324215845 0.8687463991241642 4.874554814728961 0.8633900763736382 Q 4.839527252392274 0.854082288120337 4.801065724614412 0.8444709697655592 Q 4.762604196836551 0.8348596514107814 4.722301393567326 0.8249968433746656 Q 4.681998590298101 0.8151340353385498 4.643386749539395 0.8062193373280774 Q 4.548996144955897 0.7848315660471865 4.517820206443388 0.7796356037187578 Q 4.48664426793088 0.7744396413903292 4.474580608816096 0.7698681641035642 Q 4.462516949701312 0.7652966868167991 4.461239406412118 0.7536477819452355 Q 4.4588808649551455 0.7321421114131182 4.4799385006845105 0.7298327062364992 Q 4.496067753583598 0.7280638001437698 4.582915470940835 0.7509589403948005 Q 4.669763188298072 0.7738540806458312 4.696980518006338 0.7801643217015709 Q 4.724197847714605 0.7864745627573105 4.748205229383075 0.7924567055713967 Q 4.772212611051543 0.798438848385483 4.799503645180341 0.8054211416453513 Q 4.826794679309137 0.8124034349052196 4.855503522266723 0.8199103715281559 Q 4.8842123652243075 0.827417308151092 4.91033417606587 0.834074407309092 Q 4.938395534959502 0.8418790657539348 4.95755114235801 0.8470330351034765 Q 5.037547018649713 0.8405269512142984 5.055020375957058 0.8386106362805081" fill="#fbe5c1" fill-rule="nonzero"></path></g><g transform="matrix(1,0,0,1,0,0)" clip-path="url(#SvgjsClipPath24486)"><g clip-path="url(#SvgjsClipPath244732a2f7ef6-5d1d-46f3-aa32-742a64aa4771)"><path d=" M 1.6653606931872185 0.14316999236041336 L 2.121424420988296 0.14316999236041336 L 2.121424420988296 0 L 3.1253886964763393 0 L 3.1253886964763393 0.42957116083865904 L 3.499527373093403 0.42957116083865904 L 3.499527373093403 0.7167677181633516 L 3.785928541571648 0.7167677181633516 L 3.785928541571648 2.425201776573532 L 2.867193240168244 2.425201776573532 L 2.867193240168244 2.1437564924462236 L 2.5849525671944886 2.1437564924462236 L 2.5849525671944886 1.8615158194724684 L 1.2009759743771597 1.8615158194724684 L 1.2009759743771597 2.1437564924462236 L 0.9195918740072704 2.1437564924462236 L 0.9195918740072704 2.425201776573532 L 0 2.425201776573532 L 0 0.7167677181633516 L 0.2864011684782457 0.7167677181633516 L 0.2864011684782457 0.42957116083865904 L 0.6613352339417555 0.42957116083865904 L 0.6613352339417555 0 L 1.6653606931872185 0 L 1.6653606931872185 0.14316999236041336 Z" fill="#bdbfc3" transform="matrix(1,0,0,1,0,0)" fill-rule="evenodd"></path></g><g clip-path="url(#SvgjsClipPath244732a2f7ef6-5d1d-46f3-aa32-742a64aa4771)"><path d=" M 1.5112388082488077 0.2971083260265673 L 2.27536275465445 0.2971083260265673 L 2.27536275465445 0.15393833366615373 L 2.9714503628101863 0.15393833366615373 L 2.9714503628101863 0.5843660671086783 L 3.3455890394272494 0.5843660671086783 L 3.3455890394272494 0.8707060518295052 L 3.631990207905496 0.8707060518295052 L 3.631990207905496 2.2712022591499585 L 3.021131573834398 2.2712022591499585 L 3.021131573834398 1.9897569750226503 L 2.7388909008606426 1.9897569750226503 L 2.7388909008606426 1.7073327507766387 L 1.0470376407110058 1.7073327507766387 L 1.0470376407110058 1.9895734237503937 L 0.7655923565836975 1.9895734237503937 L 0.7655923565836975 2.271018707877702 L 0.1537547823938969 2.271018707877702 L 0.1537547823938969 0.8707060518295052 L 0.44131844226310324 0.8707060518295052 L 0.44131844226310324 0.5843660671086783 L 0.8153959351227473 0.5843660671086783 L 0.8153959351227473 0.15393833366615406 L 1.5112388082488077 0.15393833366615406 Z M 2.3928967526563105 0.9559962096715634 L 2.3928967526563105 1.0494849910077648 L 2.3005092789536503 1.0494849910077648 L 2.3005092789536503 1.2349329597446934 L 2.3928967526563105 1.2349329597446934 L 2.3928967526563105 1.3276263522344482 L 2.485590145146065 1.3276263522344482 L 2.485590145146065 1.4203197447242029 L 2.671038113882994 1.4203197447242029 L 2.671038113882994 1.3276263522344485 L 2.7637315063727486 1.3276263522344485 L 2.7637315063727486 1.2349329597446936 L 2.856424898862503 1.2349329597446936 L 2.856424898862503 1.0494849910077653 L 2.7637315063727486 1.0494849910077653 L 2.7637315063727486 0.9559962096715634 L 2.671038113882994 0.9559962096715634 L 2.671038113882994 0.863302817181809 L 2.485590145146065 0.863302817181809 L 2.485590145146065 0.9559962096715634 Z M 0.9856703320197691 1.2531045356981305 L 1.09659648422038 1.2531045356981305 L 1.09659648422038 1.4757522289457992 L 1.3192441774680483 1.4757522289457992 L 1.3192441774680483 1.2531045356981305 L 1.5418306869582978 1.2531045356981305 L 1.5418306869582978 1.0304568424504623 L 1.319366544982886 1.0304568424504623 L 1.319366544982886 0.8079315167176319 L 1.0967188517352175 0.8079315167176319 L 1.0967188517352175 1.0305792099653004 L 0.8740711584875493 1.0305792099653004 L 0.8740711584875493 1.2532269032129686 L 0.9857926995346069 1.2532269032129686 Z" fill="#e8a941" transform="matrix(1,0,0,1,0,0)" fill-rule="evenodd"></path></g></g><g><path d=" M -0.4812446886148227 1.212600888286766 A 2.374208959400647 2.374208959400647 0 0 1 4.26717323018647 1.212600888286766 A 2.374208959400647 2.374208959400647 0 0 1 -0.48124468861482317 1.212600888286766 Z M -0.4312446886148229 1.212600888286766 A 2.324208959400647 2.324208959400647 0 0 0 4.2171732301864715 1.212600888286766 A 2.324208959400647 2.324208959400647 0 0 0 -0.43124468861482246 1.212600888286766 Z" fill="#ffffff" fill-rule="nonzero"></path></g><g><path d=" M -1.9389049095880186 1.212600888286766 A 3.8318691803738427 3.8318691803738427 0 0 1 5.724833451159666 1.212600888286766 A 3.8318691803738427 3.8318691803738427 0 0 1 -1.938904909588019 1.212600888286766 Z M -1.8889049095880188 1.212600888286766 A 3.781869180373843 3.781869180373843 0 0 0 5.674833451159667 1.212600888286766 A 3.781869180373843 3.781869180373843 0 0 0 -1.8889049095880184 1.212600888286766 Z" fill="#ffffff" fill-rule="nonzero"></path></g><g transform="matrix(0.8008767126962449,-0.5988292670376559,0.5988292670376559,0.8008767126962449,0.42527206380517096,-0.3688694339998938)"><g clip-path="url(#SvgjsClipPath24487)"><path d=" M -0.3420198694380557 -0.6049326661915686 C -0.22013010424046364 -0.6049326661915686 -0.119165673295348 -0.7056810936863361 -0.119165673295348 -0.8277868623342762 C -0.119165673295348 -0.9496761366149356 -0.22013010424046364 -1.050640322101585 -0.34223587288840385 -1.050640322101585 C -0.46412588354446216 -1.050640322101585 -0.5648740655807634 -0.9496761366149356 -0.5648740655807634 -0.8277868623342762 C -0.5648740655807634 -0.7056810936863361 -0.46391012555258027 -0.6049326661915686 -0.3420198694380557 -0.6049326661915686 Z M -0.3420198694380557 -0.6487249111649915 C -0.4412579909896503 -0.6487249111649915 -0.520864098947728 -0.7285480044072827 -0.520864098947728 -0.8277868623342762 C -0.520864098947728 -0.9270232656766066 -0.44147374898153213 -1.0066303554685496 -0.34223587288840385 -1.0066303554685496 C -0.24299701496141035 -1.0066303554685496 -0.16317637630378223 -0.9270232656766066 -0.16296037285343412 -0.8277868623342762 C -0.16296037285343412 -0.7285480044072827 -0.24278101151106218 -0.6487249111649915 -0.3420198694380557 -0.6487249111649915 Z" fill="#ffffff" transform="matrix(1,0,0,1,0,0)" fill-rule="nonzero"></path></g></g><g transform="matrix(-0.8008767126962449,-0.5988292670376559,-0.5988292670376559,0.8008767126962449,6.940549980067966,2.3078783950622097)"><g clip-path="url(#SvgjsClipPath24488)"><path d=" M 4.127948411009704 -0.6049326661915693 C 4.249838176207296 -0.6049326661915693 4.350802607152412 -0.7056810936863368 4.350802607152412 -0.8277868623342769 C 4.350802607152412 -0.9496761366149362 4.249838176207296 -1.0506403221015856 4.127732407559356 -1.0506403221015856 C 4.005842396903298 -1.0506403221015856 3.9050942148669967 -0.9496761366149362 3.9050942148669967 -0.8277868623342769 C 3.9050942148669967 -0.7056810936863368 4.00605815489518 -0.6049326661915693 4.127948411009704 -0.6049326661915693 Z M 4.127948411009704 -0.6487249111649922 C 4.02871028945811 -0.6487249111649922 3.949104181500032 -0.7285480044072834 3.949104181500032 -0.8277868623342769 C 3.949104181500032 -0.9270232656766073 4.028494531466228 -1.0066303554685503 4.127732407559356 -1.0066303554685503 C 4.22697126548635 -1.0066303554685503 4.306791904143978 -0.9270232656766073 4.307007907594326 -0.8277868623342769 C 4.307007907594326 -0.7285480044072834 4.227187268936698 -0.6487249111649922 4.127948411009704 -0.6487249111649922 Z" fill="#ffffff" transform="matrix(1,0,0,1,0,0)" fill-rule="nonzero"></path></g></g></g><defs><clipPath id="SvgjsClipPath24486"><path d=" M 0 0 h 3.785928541571648 v 2.425201776573532 h -3.785928541571648 Z"></path></clipPath><clipPath id="SvgjsClipPath244732a2f7ef6-5d1d-46f3-aa32-742a64aa4771"><path d=" M 0 0 L 3.785928541571648 0 L 3.785928541571648 2.425201776573532 L 0 2.425201776573532 Z"></path></clipPath><clipPath id="SvgjsClipPath24487"><path d=" M -0.6856617222646472 -1.1798160309544996 h 0.687283705653183 v 0.7118295522836539 h -0.687283705653183 Z"></path></clipPath><clipPath id="SvgjsClipPath24488"><path d=" M 3.784306558183113 -1.1798160309545003 h 0.687283705653183 v 0.7118295522836539 h -0.687283705653183 Z"></path></clipPath></defs></svg>